<?xml version="1.0" encoding="UTF-8"?>
<svg id="_レイヤー_1" data-name="レイヤー 1" xmlns="http://www.w3.org/2000/svg" viewBox="0 0 174.83 95.45">
  <defs>
    <style>
      .cls-1 {
        fill: #fff;
      }
    </style>
  </defs>
  <g>
    <path class="cls-1" d="m1.23,72.81c0-1.06-1.04-1.87-1.17-3.12-.06-.25-.06-.56-.06-.81,0-1.56.65-3.37.65-5.37.13-1.37-.26-2.62-.13-3.87.26-3.68.84-8.61,1.3-12.36.52-3.87,1.56-7.18-.45-9.74,1.04-.06.97-1.69,2.21-1.06.13-5.24,2.92-9.67,2.01-15.35.71,0,.71.69,1.3.87.19,5.12-2.01,8.8-2.34,14.48.84.81,2.08,0,3.24.12.58.06.91.5,1.36.5.84.06,1.75-.38,2.53,0,.19.06.45.62.91.87,1.75,1.06,3.31,3.18,1.69,5.37-2.08,1.37-4.28,2.75-5.19,5.3,2.47,2.68,6.29-1.37,7.92,2.12-.19,3.74-3.24,5.49-5.32,6.87.19-1,2.86-3.06,1.17-4.74-2.14.37-3.11.25-4.87.44-3.63-2.62-.19-6.37,1.1-9.55-1.1-1.87-3.63-1.19-4.93-2.62-1.04,3.74-.91,8.11-1.56,11.98-.06.62-.06,1.43-.19,2.12-.06,3.18-.52,6.37.13,8.92.26.81,1.1,1.93,1.3,2.93.26,1.43-.39,2.93,0,4.68-.71.75-.84,1.37-1.04,2.43-1.1,0-.97-1.06-1.56-1.44Zm24.66,5.43c-1.56,0-2.79-1.19-4.09-2.06-.19-1.75-.78-2.75-1.3-4.43.52-3.93-.32-7.36-1.75-10.3,1.95,1.06,2.6,3.25,4.54,4.24.84-4.87.26-8.67-.65-13.42.39-2.5-.39-6.74-1.36-9.49-.65-3.93.19-9.05-2.79-12.36-1.23.12-1.95-.69-2.99-.25-1.43-1.31-3.83-1.62-4.48-3.74,1.62-1.93,4.35-2.18,7.01-2.5,1.1.37,2.66.5,3.44-.25.71,1,1.43,0,2.47.19,1.36.25,4.54,2.5,5.45,3.81.06.19.06,1,.19,1.12.39.81.78.81.78,1.44v.31c-.13.69-1.17,1.19-1.62,1.75-.19,1.62-1.56,2.5-1.69,3.99,0,.44.39.87.39,1.44,0,1.06-.26,2-.26,3,0,1.06.45,2.06.71,3.37.84,4.31.84,10.3,1.43,15.29.45,3.62.71,5.37.58,8.86,0,1.06-.71,1.81-.91,2.68-.39,1.81.19,3.74-.65,5.3-.91.31-1.17.94-1.49,1.87-.32.12-.65.12-.97.12Z"/>
    <path class="cls-1" d="m46.14,41.42c.65-1.5,2.47-1.56,4.02-2.12,1.75-.69,3.44-1.87,5.45-2.37,5.19-1.25,11.29-2.37,16.42-.75,2.08.62,3.05.44,4.67,1.68.58.5.91,2.18.84,3.06-1.04,1.31-1.62.31-3.12.31-1.56-.06-3.24.06-5,.06-6.81,0-11.81.62-18.24.87-1.69.06-3.57,0-5.06-.75Zm13.63,32.76c0-7.68-1.49-15.42,5.45-19.35-2.27,0-4.09-.06-5.84-.06-.65-.44-.06-1.19-.19-2.06,2.14-1.62,4.28-3.12,6.23-4.81-1.88-1-5.19-.44-6.68-1.93,3.63-1.31,11.29-3.31,13.69.62-.39.5-1.3.5-1.36,1.25-3.57.62-5.65,3.37-8.37,4.31,2.6.62,4.48.06,6.49-.44.84.62,1.88,1.06,2.47,2.06-.13,1.25-1.3,1-2.4,1.12-1.95.37-4.48,1.62-6.29,2.68.39,1.25-1.23,1.62-1.23,2.87,3.31-.5,8.05-2,9.86.69-1.3,2.25-3.11,3.81-4.67,5.87,2.01,0,3.05-.06,5.19-.87-1.3,2.81-5.78,3.99-10.06,4.62-.65,1.25.71,4.06-.91,4.87-.39-.44-.91-.87-1.36-1.44Zm.39-50.86c.26-.87,1.04-1.44,1.75-2.06,3.05,1.62,5.91,3.37,7.53,6.49-.06,1.06-.06,1.81-.06,2.75-.84,1.25-1.62,2.31-3.89,2-2.47-2.81-3.89-5.74-5.32-9.17Zm6.42,38.69c-1.17-.12-4.28.19-5.19.87.13,1.56-.06,2.87.39,3.68,2.21-.25,4.15-2.56,4.8-4.56Zm13.3,8.24c.78-.75,2.79-2.5,3.18-3.43.19-.44.65-1.12.97-1.5.58-1.25,1.69-2.68,2.47-4.93.58-1.75,1.17-2.56,1.17-4.06-.19-1.12-.45-1.87.58-2.62,1.95.12,5.13,1.68,4.41,3-.13.19-.71.31-.91.56-1.23,1.5-1.23,2.37-2.21,4.06,0,.25-.52.31-.71.56-.71,1.06-1.1,2.25-1.56,3.12-.32.56-.58.62-.97,1.12-.39.69-.78,1.68-1.3,2.18-1.36,1.5-3.57,3.62-5.26,4.74-1.75,1.19-5.26,2.62-7.98,3.49,3.89-2.62,5.84-3.99,8.11-6.3Zm-2.34-12.29c-.26-1.75.58-5.55,1.1-8.67.06-1.62,1.36-3.68,1.23-5.8.58,2.12.19,3.74.13,5.3,5.06-1.5,18.24-2.87,25.37-2.43,2.73.19,5.13,1.25,4.61,3.43-.84,1.31-1.88,1.5-4.02,1.93-2.21.44-4.09.94-7.01,1,1.69-1,3.31-2.31,4.41-3.93-7.01-.5-15.19.5-21.09,1.87-.84,1.5-1.49,3.12-1.69,4.99-.13,1.5.84,3.56-1.04,4.74-1.3-.38-1.82-1.56-2.01-2.43Zm7.59-15.23c-.45-2.68,1.17-3.93,3.83-4.12.26-.44.91-.56,1.17-1,.39-1.19-.45-2.18.26-3.06-1.3-1.12-4.35-.69-6.94-.37-2.27.25-4.28,1-5.39-.81.26-1,1.3-.75,2.08-.94,1.04-.31,2.34-.69,3.57-1.06.39-.19.78-.75,1.3-.81.58-.19.97,0,1.49-.06,2.27-.31,3.05-.5,4.02-1.31.78-.62.58-4.24,1.1-5.18.78-1.56,1.62-2.12,3.25-.87,1.1,1.12,1.3,3.99,2.4,5.43,1.69.06,2.47.81,3.89.62,1.04,1,2.34,1.75,2.73,3.43-.39.62-.78,1.12-1.17,1.81-2.14.69-5.26-1.19-6.75.62-.19,1.56-.39,2.43-.45,4.18,2.08.56,4.41.19,5.78,1.37,0,.5.13.81.13,1.31-.19.19-.65,0-.58.44-4.22.25-9.09.12-13.5,1.31-.78-.25-1.69-.56-2.21-.94Zm13.56,32.14c-4.54,0-4.67-2.25-4.67-5.87,0-3.31.91-7.8,1.23-10.92.13-2.37-.52-3.93-1.17-6.12,1.43,1,3.5,2.68,3.83,4.06.58,2.62.06,5.12-.13,7.55-.19,1.87-.19,3.74.65,5.55.26.75,1.3,1.19,2.47,1.43,2.21.38,5.52.06,6.88-.56,1.23-1,1.36-3.25.78-5.3,1.23.5,1.69,3,2.14,3.87.58.94,2.92,1.81,3.11,3.12v.19c0,.75-.78,1.31-1.23,2.18-2.53.94-6.17,1.44-8.5.87-.65.06-4.48.19-5.39-.06Z"/>
    <path class="cls-1" d="m133.04,71.93c0-1.5-1.75-5.24-3.24-8.36.65.69,3.18,3.06,3.83,3.06.26-2,0-3.93-.13-6.3-1.56,1.25-4.54,2.68-6.36,3.99-1.17,1-1.75,2.31-3.24,2.62-.58-.12-.58-.94-1.23-1.12-.13-1-.97-2.37.26-4.24,2.6-2.81,4.28-6.49,6.1-10.3,1.49-3.06,2.79-5.12,3.18-8.11.58-1.19.78-2.43-.39-2.5-1.17-.19-2.99-.31-4.41-.19-2.66-.38-5.39-.75-6.23-2.93.19-.06.45-.5.71-1,3.12-.94,5.78-2.56,8.44-3,1.95.06,1.95-.37,2.14-.62.78-1.81,1.04-4.12,2.73-6.62.65-.94,2.73-1.81,4.02-.06.78,1.81,1.56,4.06,1.56,5.3,0,1.56,1.56,2.12,3.05,2.43,1.82,2.06,2.27,3.62-.19,6.12-1.17.31-1.95,1.19-3.24,1.19-1.62,0-2.27,2.37-2.34,4.06-.13,2.81-.13,5.68-.13,8.8,2.86-1.5,4.87-2.18,7.46-4.81-2.66,5.37-4.61,5.06-7.33,7.93-.06,4.49.19,9.99.71,15.42-.39,1.37-.84,2-2.01,2.68-2.14.25-2.66-.5-3.7-3.43Zm.52-15.35c-.19-1.68.13-5.74-.13-8.55-1.3,1.37-5,8.3-6.29,11.92,2.34-.75,4.8-1.93,6.42-3.37Zm18.24-3.06c-.19-.62-.91-1.06-1.36-1.81-.45-.69-.32-1.56-.71-2-.52-.56-1.17-.87-2.01-1-.06-.62-.19-1.12-.52-1.81,2.4.25,4.61-.12,6.75.94.13.06-.06.5,0,.56.26.31,1.43.44,1.56.56.26.19.06.5.26.69.45.56,1.88,1.31,2.21,1.75.65,1.25.19,3.18-.78,3.93-.32.31-1.36,0-1.43.75-2.79-.06-3.63,1.5-6.36,1.56,1.3-1.37,2.92-2.43,2.4-4.12Zm9.67,17.97c-.58-1-1.1-1.93-1.17-2.25-.58-1.44-1.17-2.62-2.34-3.68-1.49-1.5-2.6-2.87-3.31-4.87,3.44,2.68,5.65,4.06,7.79,3.99v-5.62c-.26-5.24,0-11.48-.84-17.47-1.49-.19-4.74-.12-6.1-1.06-2.21,0-4.87-1.06-7.4-2.18-.71-1.75,1.43-1.75,3.05-1.93,1.04-.12,2.86-1.12,3.89-.94,2.6-.44,3.96-1.12,6.1-1.12.52-1.62.84-3.25.78-3.87,0-2.18,1.1-3.81,2.34-5.43h.26c.65,0,.91.69,1.69.62.65.5,1.23,1.12,1.95,1.62.13.75.52,1.44.84,2.43.26.75.19,1.87.45,2.68.58,1.93,1.56,2.93,4.35,3.56.71.62,1.04,1.25,1.04,1.81,0,.69-.45,1.31-1.17,1.75-1.62,1.5-3.57,1.5-5.78,2.06-.78,4.31-.97,5.74-.78,8.86.26,3,0,3.87.45,8.61.06.69.71,3.99.71,6.55,0,2,.39,2.93-.26,4.49-.58,4.06-1.36,4.62-2.73,5.49-2.34,0-3.44-1.93-3.83-4.12Z"/>
  </g>
  <g>
    <path class="cls-1" d="m13.46,6.96l-.93,3.44c.28-.04.73-.07,1.09-.07.46,0,1.11.03,1.23.51-.12.36-.7.55-1.31.55-.4,0-.83-.05-1.27-.1l-.71,2.65c-.1.36-.48.77-.74.77h-.06c-.42-.07-.73-.56-.55-.99.12-.32.36-.7.5-.96.14-.29.34-.63.42-.94.04-.21.1-.41.16-.65-.16-.02-.32-.02-.48-.01-.2,0-.62.17-.85.17-.2,0-.46-.15-.69-.15l-.97.02-.75,2.75c-.12.36-.48.77-.74.77h-.06c-.42-.07-.73-.56-.55-.99.12-.32.36-.7.5-.96.14-.29.34-.63.42-.94.04-.19.1-.39.16-.6l-.85.02-1.35-.39v-.2c.72-.21,1.63-.37,2.44-.4.26-1.03.57-2.19.87-3.35l-.87.02-1.35-.39v-.21c.74-.21,1.67-.37,2.48-.4.3-1.06.58-2.07.79-2.89.36.02.81.24.95.47l-.67,2.44c.22.02.44.03.77.03.77,0,1.45,0,2.18-.04.28-1.06.56-2.09.79-2.92.36.02.81.24.95.47l-.69,2.55c.28-.02.68-.05,1.01-.06.46,0,1.09.03,1.23.51-.14.36-.7.55-1.31.55-.38,0-.79-.05-1.17-.1Zm-1.05-.11c-.18,0-.34-.02-.52-.01-.2,0-.62.17-.85.17-.22,0-.46-.13-.69-.13l-.89.02-.93,3.39c.26.02.5.03.85.03.75,0,1.41,0,2.12-.03l.91-3.44Z"/>
    <path class="cls-1" d="m31.22,12.58c-.26-.07-.73-.18-.99-.18-.76.33-1.45.84-2.37,1.1-1.11.3-2.04.18-2.76.42-.42-.31-.69-.92-.69-1.52,0-.1,0-.19.02-.29,1.04-1.22,3.02-1.16,4.89-.94.34-1.04.03-2.77,0-4.27-.19-1.45-.22-3.38.14-4.59.97.56.21,1.57.63,2.27.33.63,1.09.63,1.74.95.1.12.95.53,1.03.76.1.34-.02.89-.42,1.03-.79.23-1.21-.2-2.12-.37.02,1.16.37,1.83.31,2.92,0,.72,0,1.06-.15,1.57,1.41.47,2.97,1.13,3.98,1.54-.06.21-.16.31-.36.38-.79-.22-1.76-.52-2.89-.77Zm-2.5-.54c-.93-.22-2.26-.09-2.86.05-.12.19-.26.26-.16.6.97.15,2.26-.06,3.02-.65Z"/>
    <path class="cls-1" d="m45.12,15.49c-.06,0-.1-.03-.08-.07,1.24-1.59,2.76-4.08,2.74-5.99-.03-1.35-.51-2.15-1.5-2.55-.48-.03-1.27-.06-1.98-.04-.4.17-.85.14-1.23.38-.95.06-1.25-.4-1.25-1.07,0-.17.02-.36.06-.55.24-.26.54-.22.87-.29.18.14.46.2.57.37,1.31-.04,2.62-.1,3.63.15,1.62.61,2.14,1.73,2.15,2.96,0,.99-.35,2.05-.75,2.96-.34.72-.7,1.33-1.02,1.9-.04.07-.36.38-.42.46-.54.55-1.12,1.08-1.69,1.36-.02.02-.06.02-.08.02Zm.09-11.71c-.36.17-1.01.16-1.29.36.16-.39.9-.57.96-1.1.12-.51-.63-1.11.05-1.54,1.51.18,2.22.95,2.27,2.28-.26.33-.62.36-.96.57-.22-.27-.87-.22-1.03-.58Z"/>
    <path class="cls-1" d="m58.61,10.63c-.08-.15-.14-.29-.14-.39,0-.05.02-.1.06-.14.06-.02.1.02.18.1.59.63,1.4,1.65,3.96,1.74,1.05-.21,1.23.18,1.75.28.18.14,1.19.17,1.41.78-.22.22-.26.44-.86.64-4.11-.05-5.99-1.68-6.36-3.01Zm.92-7.11c.08,0,.16-.02.24-.02,1.53,0,2.32,1.05,3.65,1.33.02.22.28.17.16.34.65,0,.91.46,1.17,1.02-.64.79-1.55,1.01-2.7,1.29,1.06-1.68-1.85-2.66-2.54-3.97Z"/>
    <path class="cls-1" d="m80.96,14.72c-1.51,0-2.04-.88-2.16-1.7-.39-2.34,1.05-4.32,2.68-5.22-.99.06-3.4.31-5.22.48-.83.09-2.34.54-2.34-.28,0-.12.04-.22.18-.33.22-.17.58-.28.76-.52.77.08,1.41-.35,1.93-.67.85-.43,1.75-1.2,2.07-1.78-.59-.32-1.55-.32-1.66-1.21.78-.43,1.69-.61,2.58-.61.79,0,1.55.13,2.2.37-.06.48.29.68.19,1.11-1.71,1.07-3.62,2-5.27,3.06,1.67-.11,5.1-.02,6.14-.76.93-.09,1.53-.02,1.55.54-.32.41-.94.67-1.51.67-.56.41-1.71,1.19-2.47,1.87-1.38,1.51-1.49,4.26.71,4.86.08.02.1.07,0,.09-.12.02-.26.02-.36.02Z"/>
    <path class="cls-1" d="m92.91,14.19c0-.29-.32-.51-.37-.85-.02-.07-.02-.15-.02-.22,0-.43.2-.92.2-1.47.04-.38-.08-.72-.05-1.06.08-1.01.25-2.36.39-3.38.16-1.06.48-1.97-.15-2.66.32-.02.3-.46.68-.29.03-1.43.9-2.65.61-4.2.22,0,.22.19.4.24.07,1.4-.61,2.41-.71,3.96.26.22.65,0,1.01.03.18.02.28.13.42.13.26.02.54-.1.79,0,.06.02.14.17.28.24.55.29,1.03.87.53,1.47-.64.38-1.33.76-1.61,1.46.77.73,1.95-.38,2.46.57-.06,1.02-1,1.51-1.64,1.89.06-.27.88-.84.36-1.3-.67.11-.97.07-1.51.13-1.13-.71-.07-1.74.33-2.61-.34-.51-1.13-.32-1.54-.71-.32,1.03-.27,2.22-.47,3.28-.02.17-.02.39-.06.58-.02.87-.15,1.74.05,2.44.08.22.35.53.41.8.08.39-.12.8,0,1.28-.22.21-.26.38-.32.67-.34,0-.3-.29-.49-.39Zm7.67,1.45c-.48,0-.87-.32-1.27-.56-.06-.48-.25-.75-.41-1.21.16-1.08-.11-2.01-.56-2.81.61.29.81.88,1.42,1.15.26-1.33.07-2.37-.22-3.67.12-.68-.13-1.84-.44-2.59-.21-1.07.05-2.48-.88-3.38-.38.04-.61-.19-.93-.06-.44-.36-1.19-.44-1.4-1.02.5-.53,1.35-.6,2.17-.69.34.1.83.13,1.07-.07.22.27.44,0,.77.05.42.07,1.41.68,1.7,1.03.02.05.02.27.06.31.12.22.24.22.24.39,0,.03,0,.05,0,.09-.04.19-.36.33-.5.48-.06.44-.48.68-.52,1.1,0,.12.12.24.12.39,0,.29-.08.55-.08.82,0,.29.14.56.23.92.27,1.18.27,2.82.46,4.18.15.99.23,1.47.19,2.42,0,.29-.22.5-.28.73-.12.5.06,1.02-.2,1.45-.28.09-.36.26-.46.51-.1.03-.2.04-.3.04Z"/>
    <path class="cls-1" d="m106.82,5.54c.2-.41.76-.43,1.25-.59.54-.19,1.07-.52,1.69-.66,1.61-.35,3.5-.66,5.1-.23.65.17.95.12,1.45.45.18.14.29.6.27.84-.32.36-.5.09-.97.09-.48-.02-1.01.02-1.55.02-2.12,0-3.67.19-5.66.26-.52.02-1.11,0-1.57-.2Zm4.27,8.95c0-2.1-.48-4.22,1.67-5.3-.71,0-1.27-.01-1.81,0-.2-.12-.02-.32-.06-.56.66-.45,1.33-.86,1.93-1.32-.59-.27-1.61-.11-2.08-.52,1.13-.36,3.5-.92,4.25.15-.12.14-.4.14-.42.34-1.11.18-1.75.93-2.6,1.19.81.17,1.39.01,2.01-.13.26.17.59.29.77.56-.04.34-.4.27-.74.31-.6.11-1.39.45-1.95.74.12.34-.38.45-.38.79,1.03-.14,2.5-.56,3.06.17-.4.62-.96,1.05-1.44,1.61.62,0,.95-.02,1.61-.25-.4.77-1.79,1.1-3.12,1.28-.2.34.23,1.11-.28,1.33-.12-.12-.28-.24-.43-.39Zm.06-13.92c.08-.24.32-.39.54-.57.95.44,1.84.91,2.35,1.77-.02.29-.02.5-.02.75-.26.34-.5.63-1.21.55-.77-.77-1.22-1.57-1.66-2.5Zm2.04,10.58c-.36-.03-1.33.06-1.61.25.04.43-.02.79.12,1.01.69-.07,1.29-.71,1.49-1.25Zm4.14,2.24c.24-.21.86-.69.98-.94.06-.12.2-.31.3-.41.18-.34.52-.74.76-1.35.18-.48.36-.7.36-1.11-.06-.31-.14-.51.18-.72.61.03,1.59.45,1.37.81-.04.05-.22.09-.28.15-.38.41-.38.65-.68,1.11,0,.07-.16.09-.22.15-.22.29-.34.62-.48.86-.1.15-.18.17-.3.31-.12.19-.24.46-.4.6-.42.41-1.1,1-1.63,1.3-.54.33-1.63.72-2.47.97,1.21-.72,1.81-1.1,2.51-1.74Zm-.74-3.36c-.08-.48.17-1.52.33-2.38.02-.44.42-1.01.38-1.59.18.58.06,1.02.05,1.45,1.57-.42,5.66-.81,7.88-.7.85.05,1.59.33,1.44.93-.26.36-.58.41-1.25.53-.68.12-1.27.26-2.18.28.52-.28,1.03-.64,1.37-1.08-2.18-.13-4.72.16-6.55.54-.26.41-.46.86-.52,1.37-.04.41.27.97-.32,1.3-.4-.1-.57-.42-.63-.66Zm2.34-4.18c-.14-.73.36-1.08,1.18-1.13.08-.12.28-.16.36-.27.12-.32-.14-.6.08-.84-.4-.31-1.35-.18-2.16-.09-.71.07-1.33.28-1.67-.21.08-.27.4-.21.64-.26.32-.09.72-.19,1.11-.3.12-.05.24-.21.4-.22.18-.05.3,0,.46-.02.71-.09.95-.14,1.25-.36.24-.17.18-1.16.34-1.42.24-.43.5-.58,1.01-.24.34.31.41,1.09.75,1.48.52.01.77.22,1.21.17.32.27.73.47.85.94-.12.17-.24.31-.36.5-.67.19-1.63-.32-2.1.18-.06.43-.12.67-.14,1.14.65.15,1.37.05,1.8.37,0,.14.04.22.04.36-.06.05-.2,0-.18.12-1.31.07-2.82.05-4.19.38-.24-.07-.52-.15-.69-.25Zm4.25,8.77c-1.41,0-1.45-.61-1.46-1.6,0-.9.27-2.14.37-2.99.04-.65-.17-1.07-.37-1.67.45.27,1.09.73,1.19,1.1.19.72.03,1.4-.03,2.07-.06.51-.06,1.02.21,1.52.08.21.4.32.77.39.69.1,1.71,0,2.14-.16.38-.27.42-.89.24-1.45.38.13.53.82.67,1.06.18.25.91.49.97.85v.05c0,.2-.24.36-.38.6-.79.26-1.91.4-2.64.25-.2.02-1.39.06-1.67,0Z"/>
    <path class="cls-1" d="m133.85,13.77c0-.41-.55-1.43-1.02-2.28.2.19.99.83,1.19.83.08-.55,0-1.08-.05-1.72-.48.34-1.41.74-1.97,1.1-.36.27-.54.63-1,.72-.18-.03-.18-.25-.38-.31-.04-.27-.31-.65.08-1.16.8-.77,1.32-1.78,1.88-2.83.46-.84.86-1.4.98-2.22.18-.33.24-.67-.12-.68-.36-.05-.93-.08-1.37-.04-.83-.1-1.67-.2-1.94-.79.06-.02.14-.14.22-.27.97-.26,1.79-.71,2.62-.83.6.01.6-.11.66-.17.24-.5.32-1.13.84-1.81.2-.26.84-.5,1.25-.02.24.49.49,1.11.49,1.45,0,.43.49.58.95.66.57.56.71.99-.05,1.67-.36.09-.6.33-1.01.33-.5,0-.7.65-.72,1.11-.04.77-.03,1.55-.03,2.41.89-.41,1.51-.6,2.31-1.33-.82,1.47-1.43,1.39-2.27,2.18-.02,1.23.07,2.73.24,4.22-.12.38-.26.55-.62.74-.66.07-.83-.13-1.15-.93Zm.14-4.2c-.06-.46.03-1.57-.05-2.34-.4.38-1.54,2.28-1.94,3.27.73-.21,1.49-.54,1.99-.93Zm5.66-.86c-.06-.17-.28-.29-.43-.49-.14-.19-.1-.43-.22-.55-.16-.15-.36-.24-.63-.27-.02-.17-.06-.31-.16-.49.75.06,1.43-.04,2.1.25.04.02-.02.14,0,.15.08.08.44.12.48.15.08.05.02.14.08.19.14.15.59.36.69.47.2.34.06.87-.24,1.08-.1.09-.42,0-.44.21-.87-.01-1.13.41-1.97.44.4-.38.9-.67.74-1.13Zm3.02,4.9c-.18-.27-.34-.53-.37-.61-.18-.39-.37-.72-.73-1-.47-.41-.81-.78-1.03-1.33,1.07.73,1.76,1.1,2.42,1.08v-1.54c-.09-1.43-.02-3.14-.29-4.78-.46-.05-1.47-.03-1.9-.28-.69,0-1.51-.28-2.3-.59-.22-.48.44-.48.95-.53.32-.04.89-.31,1.21-.26.81-.12,1.23-.31,1.89-.32.16-.44.26-.89.24-1.06,0-.6.34-1.04.72-1.49.02,0,.04,0,.08,0,.2,0,.28.19.52.17.2.14.38.31.61.44.04.2.16.39.27.66.08.21.06.51.14.73.18.53.49.8,1.35.97.22.17.32.34.32.49,0,.19-.14.36-.36.48-.5.41-1.11.41-1.79.57-.24,1.18-.29,1.57-.23,2.43.08.82,0,1.06.15,2.35.02.19.23,1.09.23,1.79,0,.55.12.8-.08,1.23-.18,1.11-.42,1.27-.84,1.51-.73,0-1.07-.52-1.19-1.12Z"/>
    <path class="cls-1" d="m165.17,8.66c.4.36.79.39.79.87,0,.05,0,.12-.02.21-.2.07-.38.12-.56.12-.32,0-.63-.12-.97-.3-.2-.1-.26-.27-.45-.36-.1-.07-.26-.17-.42-.27-1.7-.76-3.9-1.43-5.65-1.6-1.17,0-4.03.99-5.29,1.78-.58.09-1.03.02-1.43-.32,0-.26-.12-.8-.13-1.14,0-.07.02-.12.02-.17,1.35,0,3.04-.37,4.81-.91.46-.14.79-.23,1.25-.23.24,0,.52.01.87.06.46.05,1.01.22,1.53.35,1.51.37,3.03.88,4.42,1.48.26.12.81.35,1.23.42Z"/>
  </g>
  <g>
    <path class="cls-1" d="m30.56,85.31c0,.17-.12.32-.36.35-.26.02-.54-.04-.79-.04-.13,0-.24.01-.36.02v-.12s.25-.06.25-.06c-.47-.06-.96-.12-1.46-.17-.06.25-.14.77-.25,1.2-.08.33-.16.65-.19.83-.02.12-.1.26-.12.38-.06.1-.11.29-.12.42-.04.12-.06.29-.08.41-.28,1.14-.54,2.25-.76,3.32-.05.24-.07.5-.06.73.01.28-.06.47-.34.59-.05.02-.1.04-.14.04-.1,0-.18-.05-.23-.16l-.34-.58c-.06-.11-.06-.22.06-.31.08-.13.16-.37.2-.55.1-.43.23-.96.34-1.4-.04-.24.07-.38.11-.47.02-.04.04-.06.04-.07v-.12c-.02-.23-.04-.7.18-.89.06-.13.54-2.72.7-3.43-.83-.02-1.78,0-2.58.02v-.17c.8-.29,1.91-.53,2.96-.55.14,0,.3-.01.46-.01.97,0,1.97.12,2.67.47.14.07.22.19.22.31Z"/>
    <path class="cls-1" d="m36,88.72c-.17.08-.52.02-.7-.06-.13-.05-.22-.18-.25-.3-.25-.19-.67-.28-.89.02-.18.23-.11.54.06.74.18.23.48.48.68.67.47.43,1.2.97,1.07,2.01-.02.29-.24.52-.43.65-.04.01-.05.05-.08.06-.1.1-.19.18-.31.26-.11.02-.2.05-.35.07-.04,0-.08.01-.12.01-.24.07-.49.11-.74.11-.13,0-.26-.01-.4-.04-.22-.01-.38-.06-.56-.12-.13-.05-.2-.17-.3-.22-.04-.04-.1-.11-.12-.18-.02-.07-.07-.12-.11-.2.07-.6.4-1.15.82-1.51l.1.11c-.14.14-.3.46-.31.7,0,.2.08.36.19.47.18.14.44.18.74.19.29.01.5-.04.68-.13.14-.12.25-.29.25-.48.02-.49-.28-.83-.66-1.2-.05-.05-.1-.11-.14-.18-.06-.07-.14-.13-.23-.28-.02-.02-.04-.07-.05-.12-.02-.01-.04-.06-.07-.11-.14-.14-.12-.23-.16-.3-.05-.19.01-.52.06-.72.01-.04.02-.04.02-.05.01-.12.07-.26.14-.36.06-.1.14-.18.28-.23.01-.04.05-.05.05-.06.24-.22.52-.38.95-.38h.05c.49.01,1.02.28,1.12.58v.12c-.04.18-.1.37-.28.44Z"/>
    <path class="cls-1" d="m44.45,91.82c-.25.38-.67.77-1.12.97-.72-.01-.98-.44-.96-1.19,0-.08.01-.18.02-.28.01-.11-.06-.16-.14-.06-.2.23-.4.47-.56.63-.13.14-.29.3-.42.42-.11.07-.24.13-.31.17-.08.04-.2.13-.29.17-.11.07-.25.13-.42.13h-.04c-.18-.01-.35-.11-.41-.26-.05-.1-.06-.2-.06-.34,0-.14.01-.3.05-.46.06-.3.29-1.06.44-1.6.2-.7.46-1.67.53-2.42h.18c.4.65.31,2.09.14,3-.05.3-.13.65-.18.95-.01.07.04.16.04.24s-.04.16-.07.23c.11.06.23,0,.32-.08.46-.41.95-.95,1.32-1.48.02-.13.05-.25.07-.34.05-.2.13-.46.17-.62.02-.11.06-.4.08-.48.01-.07.01-.26.06-.36.05-.07.14-.16.18-.24.16-.35.42-.83.68-.83.04,0,.06,0,.08.01.34.12.05.98-.08,1.26l-.11-.02c-.24.82-.5,2-.4,2.77.04.22.16.35.35.38.3.05.54-.16.74-.36l.1.07Z"/>
    <path class="cls-1" d="m52.07,92.76l-.08.12c-.65-.32-1.42-.77-1.99-1.16-.44-.36-.83-.76-1.14-1.18l-.17.29v.02c.02.14.1,1.05.1,1.21,0,.28-.08.58-.22.68-.19.17-.4.13-.52-.06l-.38-.61c-.06-.07-.1-.16-.1-.23s.04-.14.08-.22c.04-.05.05-.1.06-.14.08-.35.2-.97.3-1.42.1-.47.29-1.19.43-1.68.02-.08.11-.2.12-.25.01-.06,0-.13,0-.22,0-.07.01-.18.02-.25.22-1.16.74-2.76,1.14-3.72.23-.13.52-.24.78-.28.4.59.25,1.26-.36,1.28-.46.74-.8,1.76-1.02,2.65-.04.12-.07.26-.07.31,0,.13-.01.26-.02.32-.01.08-.07.18-.1.25-.01.07-.04.17-.05.25-.05.36-.12.8-.14,1.18,0,.08.1.11.13.05.08-.12.16-.28.19-.31.5-.61,1.54-1.56,2.21-1.92.06-.04.14-.06.23-.06.13.04.14.23.28.31-.3.47-.71.75-1.2.97l-.17-.18c-.1.04-.31.18-.37.24-.06.05-.17.22-.26.31l-.23.26c.74.98,1.74,2.18,2.52,3.15Z"/>
    <path class="cls-1" d="m59.79,91.82c-.25.38-.67.77-1.12.97-.72-.01-.98-.44-.96-1.19,0-.08.01-.18.02-.28.01-.11-.06-.16-.14-.06-.2.23-.4.47-.56.63-.13.14-.29.3-.42.42-.11.07-.24.13-.31.17-.08.04-.2.13-.29.17-.11.07-.25.13-.42.13h-.04c-.18-.01-.35-.11-.41-.26-.05-.1-.06-.2-.06-.34,0-.14.01-.3.05-.46.06-.3.29-1.06.44-1.6.2-.7.46-1.67.53-2.42h.18c.4.65.31,2.09.14,3-.05.3-.13.65-.18.95-.01.07.04.16.04.24s-.04.16-.07.23c.11.06.23,0,.32-.08.46-.41.95-.95,1.32-1.48.02-.13.05-.25.07-.34.05-.2.13-.46.17-.62.02-.11.06-.4.08-.48.01-.07.01-.26.06-.36.05-.07.14-.16.18-.24.16-.35.42-.83.68-.83.04,0,.06,0,.08.01.34.12.05.98-.08,1.26l-.11-.02c-.24.82-.5,2-.4,2.77.04.22.16.35.35.38.3.05.54-.16.74-.36l.1.07Z"/>
    <path class="cls-1" d="m66.95,87.73c.16,0,.28.11.28.28v.06s-.01.07-.04.12c-.07.19-.38.73-.49.91l-.32.54c-.05.07-.08.18-.13.3-.04.11-.1.22-.17.32-.26.47-.61.94-.76,1.36-.06.17-.2.31-.29.41-.05.07-.13.14-.18.22-.01.04-.05.1-.06.13-.04.07-.06.16-.08.2s-.07.1-.12.16l-.12.14c-.48.77-1.1,1.71-1.68,2.21-.24.23-.59.31-.94.34-.11-.14-.19-.35-.26-.64l.13-.04c.05.18.16.31.36.32.19,0,.37-.05.47-.18,0-.04.05-.1.08-.13.04-.02.08-.06.13-.08.04-.02.06-.05.08-.08.4-.47.8-1.25,1.15-1.92-.08-.43-.01-.98.01-1.46.02-.36.07-.7.04-.94-.05-.34.01-.7-.07-1-.04-.02-.05-.1-.07-.16-.04-.12-.05-.18-.05-.22-.02-.01-.01-.07-.08-.17-.04-.02-.07-.07-.08-.11-.16-.29-.42-.6-.72-.79l.06-.12c.65.13,1.08.47,1.37.9.02.04.04.07.04.12.13.14.17.23.2.29.04.05.05.17.08.36.01.06.02.14.02.19.08.35.13.74.16,1.16,0,.08.08.13.13.05.34-.61.67-1.22,1.6-2.85.08-.14.22-.2.32-.2Z"/>
    <path class="cls-1" d="m70.12,90.85c0-.28.04-.56.1-.86.06-.31.19-.67.31-.95.1-.2.26-.28.35-.38.17-.26.64-.8.96-.96.12-.05.23-.06.35-.06.16,0,.32.02.49.06.53.08.89.48,1.02.88.04.11.05.24.05.34,0,.08.01.17.04.24.04.07.08.19.1.31.02.19.04.42.04.67,0,.19,0,.38-.04.58-.04.19-.08.43-.16.62-.34.74-1.03,1.56-1.96,1.56-.08,0-.16,0-.24-.01-.89-.14-1.4-.92-1.4-2.03Zm3.06-.32c.18-.62.22-1.38.06-1.87-.07-.3-.3-.58-.66-.65-.19-.05-.4-.01-.52.11.14.08.13.28-.01.4-.37.38-.72,1.12-.85,1.7-.08.4-.08,1.01.08,1.34.2.07.4.23.52.37.06.08.17.1.25.06.58-.19.95-.85,1.13-1.46Z"/>
    <path class="cls-1" d="m84.16,91.76c-.3.41-.73.77-1.22,1.01-.53.01-.85-.28-.88-.79-.02-.53.22-1.24.37-1.69.1-.36.25-1.08.31-1.46.04-.19-.13-.28-.29-.14-.05.05-.14.08-.2.14-.06.06-.13.17-.22.25-.17.22-.34.44-.48.62-.25.36-.58.89-.9,1.66-.06.25-.1.49-.07.67.01.08.05.24.05.37,0,.4-.37.49-.59.17-.3-.49-.22-1.5-.01-2.24l.28-.91s.02-.07.02-.1c.01-.13.06-.34.1-.49.05-.19-.11-.29-.26-.17-.06.05-.17.1-.22.16-.07.08-.12.19-.19.28-.14.2-.34.49-.47.74-.23.42-.6,1.13-.84,1.67v.11c.01.17.05.38.04.54-.02.23-.08.47-.22.58-.08.07-.17.11-.25.11-.1,0-.18-.06-.25-.16l-.41-.59c-.05-.07-.07-.14-.07-.23,0-.07.02-.14.07-.22.05-.05.08-.11.1-.16.46-1.16.77-2.54.91-3.77h.17c.36.47.38,1.31.3,1.98-.01.1-.02.17-.05.26-.02.08.1.12.13.05.14-.28.3-.55.43-.76.1-.13.18-.26.26-.43.05-.07.11-.18.16-.26.06-.08.16-.12.23-.17.05-.05.13-.16.23-.24l.23-.24c.07-.06.14-.12.24-.17.06-.04.14-.05.22-.05.04,0,.07,0,.1.01.18.04.29.13.35.29.05.14.06.4.02.68-.05.41-.12.73-.23,1.04-.02.07.06.13.11.06l.66-.94c.07-.1.14-.23.19-.3.05-.06.16-.17.24-.25.1-.11.22-.22.31-.31.06-.07.16-.13.24-.18.1-.06.23-.11.35-.11.02,0,.05.01.07.01.2.04.32.16.37.31.05.14.04.37-.01.58-.06.31-.16.66-.25,1.07-.02.11-.04.44-.06.53-.2.53-.34,1.16-.35,1.56,0,.3.16.42.46.34.24-.06.43-.22.59-.4l.1.07Z"/>
    <path class="cls-1" d="m88.98,87.7l.16.06c-.3,1.27-.61,3.08-.49,4.09.02.23.16.28.38.2.24-.08.38-.28.5-.44l.14.1c-.24.44-.62.83-1.1,1.08-.05,0-.13.01-.19.01-.55-.02-.84-.38-.84-.92v-.07c.02-.6.28-1.5.32-1.67.24-.86.61-1.8,1.12-2.43Zm.36-2.55c.19,0,.38.05.5.16.01.11.02.22.02.32,0,.4-.1.78-.29,1.02-.1-.05-.24-.02-.36,0-.14.01-.26.02-.38,0-.31-.35-.24-1.09.08-1.39.1-.07.25-.11.42-.11Z"/>
    <path class="cls-1" d="m99.45,87.64c1.31.23,1.9,1.31,1.8,3.81-.01.05.05.08.08.05.29-.29.55-.6.78-.91.04-.04.12-.1.14-.14.04-.05.04-.12.08-.17.01-.05.14-.14.18-.19.01-.05.04-.16.06-.22.17-.36.32-.74.36-1.08.02-.14.02-.32.02-.48,0-.12.02-.4.29-.42.18-.01.28.18.29.37,0,.12-.05.24-.11.35,0,.04-.02.07-.02.11-.01.04-.05.11-.1.2-.06.08-.08.2-.11.31-.04.05-.13.18-.16.23l-.07.29c-.1.23-.23.44-.34.62-.17.26-.37.58-.65.89-.05.05-.25.28-.29.34-.19.19-.25.3-.37.46-.12.16-.2.37-.31.56-.08.14-.18.22-.3.22-.05,0-.11-.02-.18-.05-.25-.17-.43-.35-.54-.56-.06-.12-.06-.28-.02-.37.08-.19.17-.46.19-.73.23-1.37.12-2.78-.77-3.36l.05-.12Z"/>
    <path class="cls-1" d="m107.94,87.7l.16.06c-.3,1.27-.61,3.08-.49,4.09.02.23.16.28.38.2.24-.08.38-.28.5-.44l.14.1c-.24.44-.62.83-1.1,1.08-.05,0-.13.01-.19.01-.55-.02-.84-.38-.84-.92v-.07c.02-.6.28-1.5.32-1.67.24-.86.61-1.8,1.12-2.43Zm.36-2.55c.19,0,.38.05.5.16.01.11.02.22.02.32,0,.4-.1.78-.29,1.02-.1-.05-.24-.02-.36,0-.14.01-.26.02-.38,0-.31-.35-.24-1.09.08-1.39.1-.07.25-.11.42-.11Z"/>
    <path class="cls-1" d="m112.33,92.44c-.02-.18-.04-.37-.04-.58,0-1.07.26-2.42.46-3.41.25-1.26.77-3.11,1.29-4.04.16-.31.4-.59.64-.59.04,0,.07.01.11.02.17.06.24.23.24.44,0,.14-.04.31-.1.49-.1.26-.24.55-.42.76l-.13-.05c-.1.22-.23.56-.34.91-.01.04-.05.12-.08.23,0,.07,0,.16-.04.25-.04.07-.08.16-.11.23-.04.1-.08.19-.1.23-.12.52-.18.96-.24,1.3-.04.18-.02.35-.05.42-.01.07-.07.18-.11.25-.04.06-.06.14-.07.18-.01.04.02.12.02.2s-.01.18-.04.25c0,.05-.02.12-.04.25-.05.12-.07.18-.07.2-.01.04-.04.16-.02.23,0,.08-.01.19-.01.26-.04.25-.1.63-.08.86,0,.17.14.25.31.22.22-.06.42-.22.58-.36l.11.1c-.28.36-.55.7-.92,1.01-.1.08-.2.13-.34.13-.24,0-.4-.16-.42-.41Z"/>
    <path class="cls-1" d="m117.82,92.44c-.02-.18-.04-.37-.04-.58,0-1.07.26-2.42.46-3.41.25-1.26.77-3.11,1.3-4.04.16-.31.4-.59.64-.59.04,0,.07.01.11.02.17.06.24.23.24.44,0,.14-.04.31-.1.49-.1.26-.24.55-.42.76l-.13-.05c-.1.22-.23.56-.34.91-.01.04-.05.12-.08.23,0,.07,0,.16-.04.25-.04.07-.08.16-.11.23-.04.1-.08.19-.1.23-.12.52-.18.96-.24,1.3-.04.18-.02.35-.05.42-.01.07-.07.18-.11.25-.04.06-.06.14-.07.18-.01.04.02.12.02.2s-.01.18-.04.25c0,.05-.02.12-.04.25-.05.12-.07.18-.07.2-.01.04-.04.16-.02.23,0,.08-.01.19-.01.26-.04.25-.1.63-.08.86,0,.17.14.25.31.22.22-.06.42-.22.58-.36l.11.1c-.28.36-.55.7-.92,1.01-.1.08-.2.13-.34.13-.24,0-.4-.16-.42-.41Z"/>
    <path class="cls-1" d="m126.95,92.84l-.12.1c-.49-.25-.77-.73-.96-1.24-.04-.07-.11-.08-.17-.02-.65.79-1.58,1.42-2.25,1.01-.34-.2-.5-.68-.5-1.27s.16-1.24.47-1.87c.31-.64.77-1.21,1.22-1.54.16-.11.36-.18.53-.16.19-.13.42-.23.66-.23.08,0,.17.01.25.04.29.08.47.29.56.55.19.56.1,1.4.04,1.98-.1.88-.18,1.88.28,2.65Zm-1.48-2.3c.06-.08.12-.19.17-.29.17-.3.37-.85.46-1.21.07-.34.11-.74,0-.95-.13-.24-.46-.24-.64-.08.13.17.08.35-.11.47-.38.25-.92.82-1.12,1.34-.04.1-.06.18-.08.23-.02.05-.06.1-.1.13-.04.05-.11.14-.14.2-.26.5-.4,1.39-.04,1.61.37.22,1-.19,1.32-.7.04-.07.06-.16.06-.25,0-.08.02-.2.06-.28.04-.07.1-.17.16-.23Z"/>
    <path class="cls-1" d="m133.7,88.2c.29.49.34,1.22.22,1.75-.07.33-.23.73-.37,1.03l-.12-.07.1.11-.78.67c-.08.13-.08.3.01.42.26.36.59.8.64,1.49.07,1.12-.83,1.85-1.99,1.85h-.04c-.26,0-.58-.04-.79-.12-.71-.26-.98-.78-.98-1.26,0-.53.55-1.19,1.01-1.58l.2.1c-.2.46-.58,1.28-.29,1.66.4.52,1.38.49,1.77.28.38-.2.47-.62.31-1.07-.13-.35-.46-.65-.72-.89-.16-.14-.24-.34-.22-.59-.88-.14-1.21-1.13-.96-2.24.11-.42.24-.8.47-1.13.14-.18.35-.38.44-.56.12-.14.35-.31.54-.36l.67-.06-.02.11.05-.11c.08.01.17.02.25.06.35-.19.85-.34,1.43-.34l.06.19c-.28.08-.65.36-.89.67Zm-.44.23c-.11-.35-.41-.55-.74-.52l-.32.36c-.05.2-.19.38-.36.49-.14.25-.3.64-.37,1.03-.12.61.11,1.18.46,1.28.37.11.7-.08.85-.38.04-.07.07-.17.1-.23,0-.05.01-.13.04-.17.01-.04.07-.11.11-.17.04-.06.08-.14.1-.22.17-.48.28-1.06.16-1.49Z"/>
    <path class="cls-1" d="m137.53,90.42c.05-.1.14-.22.22-.3.43-1.36,1.32-2.47,2.18-2.47.08,0,.67.12.94.41.05.07.11.22.12.31.02,0,.06.05.08.07.05.05-.04.28-.01.31.01.05.01.12.04.19.01.04-.13.13-.13.17.1.23.05.35-.16.48-.67.41-1.54.8-2.42.97-.08.36-.11.9,0,1.2.14.24.44.36.77.36.78,0,1.52-.32,2.06-.79l.11.1c-.55.76-1.38,1.54-2.49,1.54-.89,0-1.49-.62-1.49-1.5,0-.34.07-.74.19-1.04Zm1.07-.18c.49-.12,1.03-.36,1.31-.72.34-.43.36-.96.18-1.34-.07-.14-.23-.17-.35-.07-.59.38-1.04,1.32-1.24,2.03-.02.06.04.12.1.11Z"/>
  </g>
</svg>